<mxfile host="app.diagrams.net" agent="Mozilla/5.0 (Windows NT 10.0; Win64; x64) AppleWebKit/537.36 (KHTML, like Gecko) Chrome/129.0.0.0 Safari/537.36 Edg/129.0.0.0" version="24.7.16">
  <diagram name="Page-1" id="59mtT2HjMr9t6-pp3OqZ">
    <mxGraphModel dx="922" dy="625" grid="1" gridSize="10" guides="1" tooltips="1" connect="1" arrows="1" fold="1" page="1" pageScale="1" pageWidth="1169" pageHeight="827" math="0" shadow="0">
      <root>
        <mxCell id="0" />
        <mxCell id="1" parent="0" />
        <mxCell id="vVnm3kk8aZVlc9IMPWBV-7" style="edgeStyle=orthogonalEdgeStyle;rounded=0;orthogonalLoop=1;jettySize=auto;html=1;entryX=0.5;entryY=0;entryDx=0;entryDy=0;exitX=0.167;exitY=1.041;exitDx=0;exitDy=0;exitPerimeter=0;" edge="1" parent="1" source="vVnm3kk8aZVlc9IMPWBV-1" target="vVnm3kk8aZVlc9IMPWBV-2">
          <mxGeometry relative="1" as="geometry" />
        </mxCell>
        <mxCell id="vVnm3kk8aZVlc9IMPWBV-15" value="GRPC" style="edgeLabel;html=1;align=center;verticalAlign=middle;resizable=0;points=[];" vertex="1" connectable="0" parent="vVnm3kk8aZVlc9IMPWBV-7">
          <mxGeometry x="-0.5293" relative="1" as="geometry">
            <mxPoint x="20" y="-1" as="offset" />
          </mxGeometry>
        </mxCell>
        <mxCell id="vVnm3kk8aZVlc9IMPWBV-21" style="edgeStyle=orthogonalEdgeStyle;rounded=0;orthogonalLoop=1;jettySize=auto;html=1;entryX=0.5;entryY=0;entryDx=0;entryDy=0;" edge="1" parent="1" target="vVnm3kk8aZVlc9IMPWBV-3">
          <mxGeometry relative="1" as="geometry">
            <mxPoint x="585" y="320" as="sourcePoint" />
          </mxGeometry>
        </mxCell>
        <mxCell id="vVnm3kk8aZVlc9IMPWBV-22" value="GRPC" style="edgeLabel;html=1;align=center;verticalAlign=middle;resizable=0;points=[];" vertex="1" connectable="0" parent="vVnm3kk8aZVlc9IMPWBV-21">
          <mxGeometry x="-0.2724" relative="1" as="geometry">
            <mxPoint x="25" y="-19" as="offset" />
          </mxGeometry>
        </mxCell>
        <mxCell id="vVnm3kk8aZVlc9IMPWBV-1" value="Facade API&lt;br&gt;GatewayService.Api" style="rounded=1;whiteSpace=wrap;html=1;" vertex="1" parent="1">
          <mxGeometry x="267" y="280" width="433" height="40" as="geometry" />
        </mxCell>
        <mxCell id="vVnm3kk8aZVlc9IMPWBV-2" value="CardsService.Api" style="rounded=1;whiteSpace=wrap;html=1;" vertex="1" parent="1">
          <mxGeometry x="280" y="480" width="120" height="40" as="geometry" />
        </mxCell>
        <mxCell id="vVnm3kk8aZVlc9IMPWBV-3" value="ApplicationsService.Api" style="rounded=1;whiteSpace=wrap;html=1;" vertex="1" parent="1">
          <mxGeometry x="500" y="480" width="170" height="40" as="geometry" />
        </mxCell>
        <mxCell id="vVnm3kk8aZVlc9IMPWBV-4" value="User frontend" style="rounded=1;whiteSpace=wrap;html=1;" vertex="1" parent="1">
          <mxGeometry x="280" y="160" width="120" height="40" as="geometry" />
        </mxCell>
        <mxCell id="vVnm3kk8aZVlc9IMPWBV-5" style="edgeStyle=orthogonalEdgeStyle;rounded=0;orthogonalLoop=1;jettySize=auto;html=1;entryX=0.167;entryY=0;entryDx=0;entryDy=0;entryPerimeter=0;" edge="1" parent="1" source="vVnm3kk8aZVlc9IMPWBV-4" target="vVnm3kk8aZVlc9IMPWBV-1">
          <mxGeometry relative="1" as="geometry" />
        </mxCell>
        <mxCell id="vVnm3kk8aZVlc9IMPWBV-6" value="HTTP JSON" style="edgeLabel;html=1;align=center;verticalAlign=middle;resizable=0;points=[];" vertex="1" connectable="0" parent="vVnm3kk8aZVlc9IMPWBV-5">
          <mxGeometry x="-0.0353" y="2" relative="1" as="geometry">
            <mxPoint as="offset" />
          </mxGeometry>
        </mxCell>
        <mxCell id="vVnm3kk8aZVlc9IMPWBV-10" value="CardsService.Sdk" style="rounded=1;whiteSpace=wrap;html=1;" vertex="1" parent="1">
          <mxGeometry x="270" y="400" width="120" height="40" as="geometry" />
        </mxCell>
        <mxCell id="vVnm3kk8aZVlc9IMPWBV-11" value="" style="endArrow=none;dashed=1;html=1;rounded=0;exitX=0.5;exitY=0;exitDx=0;exitDy=0;entryX=0.166;entryY=1.026;entryDx=0;entryDy=0;entryPerimeter=0;" edge="1" parent="1" source="vVnm3kk8aZVlc9IMPWBV-10" target="vVnm3kk8aZVlc9IMPWBV-1">
          <mxGeometry width="50" height="50" relative="1" as="geometry">
            <mxPoint x="440" y="400" as="sourcePoint" />
            <mxPoint x="490" y="350" as="targetPoint" />
          </mxGeometry>
        </mxCell>
        <mxCell id="vVnm3kk8aZVlc9IMPWBV-13" value="" style="endArrow=none;dashed=1;html=1;rounded=0;entryX=0.5;entryY=1;entryDx=0;entryDy=0;exitX=0.5;exitY=0;exitDx=0;exitDy=0;" edge="1" parent="1" source="vVnm3kk8aZVlc9IMPWBV-2" target="vVnm3kk8aZVlc9IMPWBV-10">
          <mxGeometry width="50" height="50" relative="1" as="geometry">
            <mxPoint x="440" y="400" as="sourcePoint" />
            <mxPoint x="490" y="350" as="targetPoint" />
          </mxGeometry>
        </mxCell>
        <mxCell id="vVnm3kk8aZVlc9IMPWBV-18" value="" style="endArrow=none;dashed=1;html=1;rounded=0;entryX=0.685;entryY=1.023;entryDx=0;entryDy=0;entryPerimeter=0;exitX=0.5;exitY=0;exitDx=0;exitDy=0;" edge="1" parent="1" source="vVnm3kk8aZVlc9IMPWBV-16">
          <mxGeometry width="50" height="50" relative="1" as="geometry">
            <mxPoint x="570" y="400" as="sourcePoint" />
            <mxPoint x="586.5999999999999" y="320.9200000000001" as="targetPoint" />
          </mxGeometry>
        </mxCell>
        <mxCell id="vVnm3kk8aZVlc9IMPWBV-19" value="" style="endArrow=none;dashed=1;html=1;rounded=0;entryX=0.5;entryY=0;entryDx=0;entryDy=0;exitX=0.5;exitY=1;exitDx=0;exitDy=0;" edge="1" parent="1" source="vVnm3kk8aZVlc9IMPWBV-16" target="vVnm3kk8aZVlc9IMPWBV-3">
          <mxGeometry width="50" height="50" relative="1" as="geometry">
            <mxPoint x="580" y="440" as="sourcePoint" />
            <mxPoint x="620" y="350" as="targetPoint" />
          </mxGeometry>
        </mxCell>
        <mxCell id="vVnm3kk8aZVlc9IMPWBV-16" value="ApplicationsService.Sdk" style="rounded=1;whiteSpace=wrap;html=1;" vertex="1" parent="1">
          <mxGeometry x="480" y="400" width="170" height="40" as="geometry" />
        </mxCell>
      </root>
    </mxGraphModel>
  </diagram>
</mxfile>
